<!DOCTYPE svg PUBLIC "-//W3C//DTD SVG 1.1//EN" "http://www.w3.org/Graphics/SVG/1.1/DTD/svg11.dtd">
<!-- Uploaded to: SVG Repo, www.svgrepo.com, Transformed by: SVG Repo Mixer Tools -->
<svg width="800px" height="800px" viewBox="0 0 1024 1024" xmlns="http://www.w3.org/2000/svg" fill="#0C0B0B" stroke="#0C0B0B">
<g id="SVGRepo_bgCarrier" stroke-width="0"/>
<g id="SVGRepo_tracerCarrier" stroke-linecap="round" stroke-linejoin="round"/>
<g id="SVGRepo_iconCarrier">
<path fill="#000000" d="M289.088 296.704h92.992a32 32 0 0 1 0 64H232.96a32 32 0 0 1-32-32V179.712a32 32 0 0 1 64 0v50.56a384 384 0 0 1 643.84 282.88 384 384 0 0 1-383.936 384 384 384 0 0 1-384-384h64a320 320 0 1 0 640 0 320 320 0 0 0-555.712-216.448z"/>
</g>
</svg>